<svg width="34" height="34" viewBox="0 0 34 34" fill="none" xmlns="http://www.w3.org/2000/svg">
<path d="M7.76575 2.82263C7.6403 2.66126 7.48196 2.52842 7.30123 2.43295C7.1205 2.33748 6.92153 2.28156 6.71753 2.2689C6.51353 2.25624 6.30916 2.28713 6.11802 2.35951C5.92687 2.4319 5.75331 2.54413 5.60887 2.68875L3.41163 4.88813C2.38525 5.91663 2.007 7.37225 2.45538 8.64938C4.31632 13.9355 7.3435 18.7348 11.3124 22.6914C15.269 26.6602 20.0683 29.6874 25.3544 31.5484C26.6315 31.9967 28.0871 31.6185 29.1156 30.5921L31.3129 28.3949C31.4575 28.2504 31.5697 28.0769 31.6421 27.8857C31.7145 27.6946 31.7454 27.4902 31.7327 27.2862C31.7201 27.0822 31.6641 26.8832 31.5687 26.7025C31.4732 26.5218 31.3404 26.3634 31.179 26.238L26.2766 22.4258C26.1042 22.292 25.9037 22.1992 25.6902 22.1543C25.4767 22.1094 25.2558 22.1136 25.0441 22.1665L20.3904 23.3289C19.7692 23.4841 19.1184 23.4759 18.5013 23.305C17.8843 23.134 17.322 22.8062 16.8692 22.3535L11.6502 17.1324C11.1971 16.6798 10.8689 16.1177 10.6976 15.5006C10.5263 14.8835 10.5178 14.2326 10.6727 13.6113L11.8372 8.9575C11.8902 8.74584 11.8943 8.52493 11.8494 8.31142C11.8045 8.09792 11.7117 7.8974 11.578 7.725L7.76575 2.82263ZM4.0045 1.0865C4.37636 0.71452 4.82311 0.425904 5.31507 0.239819C5.80703 0.0537351 6.33295 -0.02556 6.85791 0.00719958C7.38287 0.0399592 7.89485 0.184024 8.35986 0.429827C8.82487 0.675631 9.23227 1.01755 9.555 1.43288L13.3672 6.33313C14.0664 7.232 14.3129 8.40288 14.0366 9.50788L12.8742 14.1616C12.8142 14.4027 12.8174 14.6551 12.8837 14.8946C12.95 15.134 13.077 15.3522 13.2525 15.528L18.4736 20.7491C18.6497 20.925 18.8682 21.0522 19.108 21.1185C19.3479 21.1848 19.6008 21.1879 19.8421 21.1274L24.4937 19.965C25.0391 19.8287 25.6082 19.8181 26.1582 19.934C26.7082 20.05 27.2247 20.2895 27.6685 20.6344L32.5687 24.4466C34.3304 25.8173 34.4919 28.4204 32.9151 29.995L30.7179 32.1923C29.1454 33.7648 26.7951 34.4554 24.6042 33.684C18.9968 31.711 13.9055 28.5008 9.708 24.2915C5.49899 20.0947 2.28879 15.0041 0.315501 9.39738C-0.453749 7.20863 0.236876 4.85625 1.80938 3.28375L4.00663 1.0865H4.0045Z" fill="#FEFEFE"/>
</svg>
