<svg width="29" height="26" viewBox="0 0 29 26" fill="none" xmlns="http://www.w3.org/2000/svg">
<path d="M27.9643 0H1.03571C0.462835 0 0 0.50932 0 1.13974V23.9345C0 24.5649 0.462835 25.0742 1.03571 25.0742H27.9643C28.5372 25.0742 29 24.5649 29 23.9345V1.13974C29 0.50932 28.5372 0 27.9643 0ZM26.6696 3.94634V22.5098H2.33036V3.94634L1.43705 3.18058L2.70904 1.38193L4.09431 2.56797H24.9089L26.2942 1.38193L27.5662 3.18058L26.6696 3.94634ZM24.9089 2.56441L14.5 11.4686L4.09107 2.56441L2.7058 1.37837L1.43382 3.17702L2.32712 3.94278L13.3834 13.4026C13.7013 13.6744 14.0925 13.822 14.4951 13.822C14.8978 13.822 15.289 13.6744 15.6069 13.4026L26.6696 3.94634L27.5629 3.18058L26.291 1.38193L24.9089 2.56441Z" fill="#FEFEFE"/>
</svg>
