<svg width="25" height="32" viewBox="0 0 25 32" fill="none" xmlns="http://www.w3.org/2000/svg">
<path d="M12.375 18C11.2625 18 10.1749 17.6701 9.24992 17.052C8.32489 16.4339 7.60392 15.5554 7.17818 14.5276C6.75244 13.4998 6.64104 12.3688 6.85809 11.2776C7.07513 10.1865 7.61086 9.1842 8.39753 8.39753C9.1842 7.61086 10.1865 7.07513 11.2776 6.85809C12.3688 6.64104 13.4998 6.75244 14.5276 7.17818C15.5554 7.60392 16.4339 8.32489 17.052 9.24992C17.6701 10.1749 18 11.2625 18 12.375C17.9982 13.8663 17.405 15.296 16.3505 16.3505C15.296 17.405 13.8663 17.9982 12.375 18ZM12.375 9C11.7075 9 11.055 9.19794 10.5 9.56879C9.94494 9.93964 9.51236 10.4667 9.25691 11.0834C9.00146 11.7001 8.93463 12.3787 9.06485 13.0334C9.19508 13.6881 9.51652 14.2895 9.98852 14.7615C10.4605 15.2335 11.0619 15.5549 11.7166 15.6852C12.3713 15.8154 13.0499 15.7485 13.6666 15.4931C14.2833 15.2377 14.8104 14.8051 15.1812 14.2501C15.5521 13.695 15.75 13.0425 15.75 12.375C15.7491 11.4802 15.3932 10.6222 14.7605 9.9895C14.1278 9.35676 13.2698 9.0009 12.375 9Z" fill="#FEFEFE"/>
<path d="M12.375 31.5L2.88451 20.3074C2.75264 20.1393 2.62214 19.9702 2.49301 19.8C0.871866 17.6645 -0.00391634 15.0561 1.31657e-05 12.375C1.31657e-05 9.09295 1.3038 5.94532 3.62457 3.62455C5.94533 1.30379 9.09296 0 12.375 0C15.6571 0 18.8047 1.30379 21.1255 3.62455C23.4462 5.94532 24.75 9.09295 24.75 12.375C24.7539 15.0549 23.8786 17.6621 22.2581 19.7966L22.257 19.8C22.257 19.8 21.9195 20.2433 21.8689 20.3029L12.375 31.5ZM4.28851 18.4444C4.29076 18.4444 4.55176 18.7909 4.61139 18.8651L12.375 28.0215L20.1488 18.8527C20.1983 18.7909 20.4615 18.4421 20.4626 18.441C21.7869 16.6963 22.5026 14.5654 22.5 12.375C22.5 9.68968 21.4333 7.11435 19.5345 5.21554C17.6357 3.31674 15.0603 2.25 12.375 2.25C9.6897 2.25 7.11436 3.31674 5.21556 5.21554C3.31675 7.11435 2.25001 9.68968 2.25001 12.375C2.24765 14.5668 2.96414 16.6988 4.28964 18.4444H4.28851Z" fill="#FEFEFE"/>
</svg>
