<svg width="58" height="58" viewBox="0 0 58 58" fill="none" xmlns="http://www.w3.org/2000/svg">
<path d="M37.9997 29.0002C37.9997 31.3871 37.0515 33.6763 35.3637 35.3642C33.6758 37.052 31.3867 38.0002 28.9997 38.0002C26.6128 38.0002 24.3236 37.052 22.6357 35.3642C20.9479 33.6763 19.9997 31.3871 19.9997 29.0002C19.9997 28.4872 20.0537 27.9862 20.1467 27.5002H16.9997V39.4912C16.9997 40.3252 17.6747 41.0002 18.5087 41.0002H39.4937C39.8934 40.9994 40.2764 40.8401 40.5588 40.5572C40.8411 40.2743 40.9997 39.8909 40.9997 39.4912V27.5002H37.8527C37.9457 27.9862 37.9997 28.4872 37.9997 29.0002ZM28.9997 35.0002C29.7878 35 30.5682 34.8446 31.2963 34.5428C32.0243 34.241 32.6858 33.7988 33.243 33.2413C33.8001 32.6839 34.242 32.0222 34.5434 31.294C34.8449 30.5658 34.9999 29.7853 34.9997 28.9972C34.9995 28.2091 34.8441 27.4287 34.5423 26.7006C34.2405 25.9726 33.7983 25.3111 33.2408 24.7539C32.6834 24.1968 32.0217 23.7549 31.2935 23.4535C30.5653 23.152 29.7848 22.997 28.9967 22.9972C27.405 22.9976 25.8787 23.6303 24.7534 24.7561C23.6282 25.8818 22.9963 27.4085 22.9967 29.0002C22.9971 30.5919 23.6298 32.1182 24.7556 33.2435C25.8813 34.3687 27.408 35.0006 28.9997 35.0002ZM36.1997 22.7002H39.7967C40.0357 22.7002 40.2649 22.6055 40.4342 22.4368C40.6034 22.2681 40.6989 22.0392 40.6997 21.8002V18.2032C40.6997 17.9637 40.6046 17.734 40.4352 17.5647C40.2659 17.3953 40.0362 17.3002 39.7967 17.3002H36.1997C35.9602 17.3002 35.7305 17.3953 35.5612 17.5647C35.3918 17.734 35.2967 17.9637 35.2967 18.2032V21.8002C35.2997 22.2952 35.7047 22.7002 36.1997 22.7002ZM28.9997 0.200195C21.3615 0.200195 14.0361 3.23447 8.63503 8.63552C3.23398 14.0366 0.199707 21.362 0.199707 29.0002C0.199707 36.6384 3.23398 43.9638 8.63503 49.3649C14.0361 54.7659 21.3615 57.8002 28.9997 57.8002C32.7818 57.8002 36.5268 57.0553 40.021 55.6079C43.5152 54.1606 46.6901 52.0392 49.3644 49.3649C52.0387 46.6905 54.1601 43.5157 55.6074 40.0215C57.0548 36.5273 57.7997 32.7823 57.7997 29.0002C57.7997 25.2181 57.0548 21.4731 55.6074 17.9789C54.1601 14.4847 52.0387 11.3098 49.3644 8.63552C46.6901 5.96119 43.5152 3.8398 40.021 2.39246C36.5268 0.945129 32.7818 0.200195 28.9997 0.200195ZM43.9997 40.6672C43.9997 42.5002 42.4997 44.0002 40.6667 44.0002H17.3327C15.4997 44.0002 13.9997 42.5002 13.9997 40.6672V17.3332C13.9997 15.5002 15.4997 14.0002 17.3327 14.0002H40.6667C42.4997 14.0002 43.9997 15.5002 43.9997 17.3332V40.6672Z" fill="#FEFEFE"/>
</svg>
