<svg width="58" height="58" viewBox="0 0 58 58" fill="none" xmlns="http://www.w3.org/2000/svg">
<path d="M33.8087 28.4992L27.0707 25.3552C26.4827 25.0822 25.9997 25.3882 25.9997 26.0392V31.9612C25.9997 32.6122 26.4827 32.9182 27.0707 32.6452L33.8057 29.5012C34.3967 29.2252 34.3967 28.7752 33.8087 28.4992ZM28.9997 0.200195C13.0937 0.200195 0.199707 13.0942 0.199707 29.0002C0.199707 44.9062 13.0937 57.8002 28.9997 57.8002C44.9057 57.8002 57.7997 44.9062 57.7997 29.0002C57.7997 13.0942 44.9057 0.200195 28.9997 0.200195ZM28.9997 40.7002C14.2577 40.7002 13.9997 39.3712 13.9997 29.0002C13.9997 18.6292 14.2577 17.3002 28.9997 17.3002C43.7417 17.3002 43.9997 18.6292 43.9997 29.0002C43.9997 39.3712 43.7417 40.7002 28.9997 40.7002Z" fill="#FEFEFE"/>
</svg>
