<svg width="176" height="176" viewBox="0 0 176 176" fill="none" xmlns="http://www.w3.org/2000/svg">
<path d="M139.333 80.6669H52.3597L78.9797 48.6936C80.2244 47.196 80.8233 45.2653 80.6445 43.3261C80.4657 41.387 79.5239 39.5983 78.0263 38.3536C76.5287 37.1088 74.598 36.51 72.6589 36.6887C70.7198 36.8675 68.9311 37.8093 67.6863 39.3069L31.0197 83.3069C30.773 83.6569 30.5524 84.0245 30.3597 84.4069C30.3597 84.7736 30.3597 84.9936 29.8463 85.3602C29.5139 86.2011 29.3399 87.0961 29.333 88.0002C29.3399 88.9044 29.5139 89.7994 29.8463 90.6402C29.8463 91.0069 29.8463 91.2269 30.3597 91.5936C30.5524 91.9759 30.773 92.3436 31.0197 92.6936L67.6863 136.694C68.3758 137.521 69.2393 138.187 70.2152 138.643C71.1912 139.1 72.2557 139.335 73.333 139.334C75.0465 139.337 76.707 138.74 78.0263 137.647C78.7689 137.031 79.3827 136.275 79.8326 135.422C80.2825 134.569 80.5597 133.635 80.6483 132.675C80.7368 131.714 80.635 130.746 80.3487 129.825C80.0624 128.903 79.5972 128.048 78.9797 127.307L52.3597 95.3336H139.333C141.278 95.3336 143.143 94.5609 144.518 93.1857C145.894 91.8104 146.666 89.9452 146.666 88.0002C146.666 86.0553 145.894 84.1901 144.518 82.8148C143.143 81.4395 141.278 80.6669 139.333 80.6669Z" fill="black"/>
</svg>
