<svg width="74" height="59" viewBox="0 0 74 59" fill="none" xmlns="http://www.w3.org/2000/svg">
<path d="M12.8455 48.9L26.2048 50.4414C28.0888 50.4414 28.26 49.6422 27.2324 49.4139C23.5329 48.5919 22.608 43.2481 22.608 40.679L25.6909 42.7342V41.1928L27.7462 42.7342C27.9175 43.2481 28.1573 43.5564 27.7462 40.679C27.3351 37.8016 30.3153 36.0546 31.8568 35.5408L32.8844 42.7342L42.1331 32.9717L43.6746 43.7619L49.3266 35.5408V42.7342C49.3266 42.2204 50.0459 41.1928 52.9233 41.1928C55.8007 41.1928 51.0393 48.3863 48.299 51.983L57.0339 50.9553L53.951 48.9L64.2273 45.3032L58.5753 44.2757L73.4761 34.5132L63.7135 32.9717L69.3655 27.3197L54.9786 27.8335C53.0946 25.0931 48.4017 19.7152 44.7022 20.1261C45.5243 2.45077 33.7408 -0.597882 27.7462 0.0872094C28.0888 2.14248 30.3153 8.30831 29.2877 16.0156C23.6357 5.22539 2.56909 8.82212 0 14.9879C7.39899 16.2211 14.7295 26.8058 17.4698 31.944L1.02764 39.1374L18.4975 45.3032L12.8455 48.9Z" fill="#1A1B1B"/>
<path fill-rule="evenodd" clip-rule="evenodd" d="M36.0689 57.8307C31.8252 56.6591 28.4378 53.092 26.7661 50.1006L27.6976 49.5801C29.2801 52.412 32.4696 55.73 36.3528 56.8021C38.2791 57.3339 40.3821 57.3162 42.5724 56.4092C44.7691 55.4995 47.0889 53.6803 49.4114 50.5501L50.2684 51.1859C47.8637 54.427 45.4008 56.3929 42.9806 57.3951C40.554 58.4 38.206 58.4207 36.0689 57.8307Z" fill="#1A1B1B"/>
</svg>
